:SAMPLES-PER-SECOND 30
:FULLY-SPECIFIED
:DEGREES
362
root  -2.91082 40.7837 -0.112606 -5.1478 -59.8387 5.66991
RightUpLeg  7.27726 -5.01206 -2.345
RightLeg  -2.21275 -45.971 2.92779
RightFoot  -3.52547 -0.348496 4.73571
RightToes  -3.13006e-008 1.75238e-005 3.56266e-009
Spine  -6.87659 0.454394 -0.651079
Spine1  14.6191 2.29613 -4.53216
HEad  -10.6918 3.09679 -8.44011
LeftShoulder1  2.53234 -4.19528 -26.788
LeftArm  -53.623 -31.3782 -34.7074
LeftForeArm  128.176 -67.7283 -151.186
LeftHand  -0.0543675 -3.84694 0.955599
RightShoulder  3.12821 6.23102 26.1029
RightArm  -7.34665 -37.6768 43.3085
RightForeArm  70.0139 79.1731 66.386
RightHand  0.295907 4.34332 3.2443
LeftUpLeg  -2.48933 -1.81467 -0.110401
LeftLeg  1.07042 -13.5031 -0.248199
LeftFoot  0.952537 0.540696 -5.07327
LeftToes  4.76866e-008 1.46233e-008 1.30548e-009
363
root  -2.90155 40.7926 -0.0985811 -5.00323 -60.9012 5.70978
RightUpLeg  7.01924 -4.89983 -2.34538
RightLeg  -2.40242 -45.0455 3.04349
RightFoot  -3.40916 -0.334187 4.4866
RightToes  -3.13006e-008 1.75238e-005 3.56266e-009
Spine  -6.93797 0.22895 -1.44541
Spine1  14.3641 1.86664 -3.74651
HEad  -11.2742 1.60588 -8.12467
LeftShoulder1  2.44532 -4.1574 -25.7742
LeftArm  -58.2045 -35.7183 -32.0796
LeftForeArm  134.646 -63.822 -156.38
LeftHand  0.0555162 -4.6228 -0.425391
RightShoulder  3.08883 6.17829 25.8614
RightArm  -8.19528 -38.5987 43.0009
RightForeArm  72.8841 79.3818 68.8575
RightHand  0.266546 4.25122 2.93419
LeftUpLeg  -2.52278 -1.62469 0.0515362
LeftLeg  0.947825 -12.6676 -0.332723
LeftFoot  0.953649 0.516363 -4.84719
LeftToes  4.76866e-008 1.46233e-008 1.30548e-009
364
root  -2.91274 40.807 -0.0742998 -5.10362 -61.9894 5.81075
RightUpLeg  7.03557 -4.88884 -2.44171
RightLeg  -2.63488 -43.9666 3.22984
RightFoot  -3.32059 -0.330407 4.40216
RightToes  -3.13006e-008 1.75238e-005 3.56266e-009
Spine  -6.33747 0.00648802 -2.35012
Spine1  13.3962 1.34719 -2.74419
HEad  -11.6509 1.50899 -8.06889
LeftShoulder1  2.25706 -3.75692 -24.8973
LeftArm  -62.5132 -39.883 -29.9277
LeftForeArm  139.925 -59.7575 -160.315
LeftHand  0.32652 -5.02373 -3.40027
RightShoulder  3.0927 6.22895 25.7275
RightArm  -8.33482 -39.0385 42.1424
RightForeArm  71.9776 79.3273 68.4592
RightHand  0.124226 3.98735 1.26601
LeftUpLeg  -2.23732 -1.43679 0.166341
LeftLeg  0.67726 -11.7784 -0.35679
LeftFoot  0.974074 0.506895 -4.75261
LeftToes  4.76866e-008 1.46233e-008 1.30548e-009
365
root  -2.92744 40.8207 -0.0250085 -5.25961 -63.2486 6.03766
RightUpLeg  6.88978 -4.85001 -2.58533
RightLeg  -2.60217 -42.7472 3.16297
RightFoot  -3.25642 -0.322755 4.25003
RightToes  -3.13006e-008 1.75238e-005 3.56266e-009
Spine  -6.39668 -0.185709 -3.25622
Spine1  13.1523 0.879643 -1.64737
HEad  -12.3872 1.87328 -8.10786
LeftShoulder1  2.01541 -3.18273 -23.9148
LeftArm  -66.5486 -43.1401 -27.7604
LeftForeArm  144.214 -56.2851 -162.955
LeftHand  0.193349 -7.32247 -1.37409
RightShoulder  3.18691 6.5 25.8121
RightArm  -8.45414 -39.2027 41.0061
RightForeArm  72.7164 79.3761 69.0235
RightHand  0.123143 3.76407 1.29653
LeftUpLeg  -1.9123 -1.35393 0.188944
LeftLeg  0.269109 -10.6328 -0.317157
LeftFoot  1.01195 0.504059 -4.71376
LeftToes  4.76866e-008 1.46233e-008 1.30548e-009
366
root  -2.93016 40.83 0.0175971 -5.24228 -64.3299 6.07817
RightUpLeg  6.70493 -4.71221 -2.58085
RightLeg  -2.50983 -41.8173 2.9895
RightFoot  -3.15543 -0.327709 4.27729
RightToes  -3.13006e-008 1.75238e-005 3.56266e-009
Spine  -6.44228 -0.226192 -4.03152
Spine1  12.9928 0.518192 -0.383152
HEad  -12.9208 1.70779 -8.34296
LeftShoulder1  1.87399 -2.79882 -23.4804
LeftArm  -69.6607 -45.343 -25.9379
LeftForeArm  145.069 -53.8917 -164.364
LeftHand  0.235151 -8.13938 -1.63114
RightShoulder  3.17041 6.54847 25.4769
RightArm  -9.18992 -39.3232 40.813
RightForeArm  72.0147 79.3201 68.0646
RightHand  0.202624 4.38173 2.12428
LeftUpLeg  -1.78786 -1.20744 0.293473
LeftLeg  0.192797 -9.72597 -0.381241
LeftFoot  0.933561 0.488176 -4.59223
LeftToes  4.76866e-008 1.46233e-008 1.30548e-009
367
root  -2.92613 40.8435 0.0804301 -5.28195 -65.4293 6.06392
RightUpLeg  6.70948 -4.56173 -2.58527
RightLeg  -2.625 -40.8623 2.93671
RightFoot  -2.97619 -0.335221 4.30629
RightToes  -3.13006e-008 1.75238e-005 3.56266e-009
Spine  -6.67999 -0.139741 -3.50938
Spine1  13.1433 0.690036 -0.828121
HEad  -13.4789 2.25898 -7.66983
LeftShoulder1  1.84249 -2.78355 -23.0261
LeftArm  -71.7128 -46.5843 -24.7941
LeftForeArm  143.62 -53.6281 -164.391
LeftHand  0.287443 -9.78813 -1.78627
RightShoulder  3.25646 6.66447 25.9875
RightArm  -10.4442 -39.6156 40.6412
RightForeArm  73.2954 79.4076 69.1419
RightHand  0.225354 4.55799 2.33771
LeftUpLeg  -1.51427 -1.15046 0.328261
LeftLeg  0.0683728 -8.7151 -0.326698
LeftFoot  0.91116 0.463383 -4.36851
LeftToes  4.76866e-008 1.46233e-008 1.30548e-009
368
root  -2.91724 40.8471 0.133221 -5.50677 -66.3182 6.22662
RightUpLeg  6.71672 -4.40864 -2.61786
RightLeg  -2.67093 -40.1142 2.76277
RightFoot  -2.82004 -0.339941 4.30087
RightToes  -3.13006e-008 1.75238e-005 3.56266e-009
Spine  -7.0094 -0.0511077 -3.65855
Spine1  13.4806 0.648593 -0.289863
HEad  -13.5664 1.72566 -7.45725
LeftShoulder1  1.85745 -2.78836 -23.2524
LeftArm  -72.5397 -46.759 -24.5601
LeftForeArm  138.919 -55.9404 -162.748
LeftHand  0.43101 -9.1298 -3.07804
RightShoulder  3.17179 6.44378 25.8415
RightArm  -10.815 -39.2349 40.8119
RightForeArm  72.5929 79.3631 68.694
RightHand  0.185502 4.27791 1.94794
LeftUpLeg  -1.27174 -1.13046 0.293469
LeftLeg  -0.0191755 -7.86203 -0.334917
LeftFoot  0.866086 0.44702 -4.22957
LeftToes  4.76866e-008 1.46233e-008 1.30548e-009
369
root  -2.9143 40.8505 0.195129 -5.87584 -66.9523 6.41974
RightUpLeg  6.84454 -4.4631 -2.78878
RightLeg  -2.55515 -39.4262 2.62546
RightFoot  -2.74945 -0.349245 4.404
RightToes  -3.13006e-008 1.75238e-005 3.56266e-009
Spine  -7.00708 -0.150096 -3.49109
Spine1  13.3991 0.508417 -0.225339
HEad  -13.6425 1.51252 -6.61071
LeftShoulder1  1.87833 -2.86485 -23.2242
LeftArm  -71.9951 -45.7346 -25.5944
LeftForeArm  132.88 -60.3983 -159.215
LeftHand  0.523514 -7.36614 -4.37048
RightShoulder  3.17486 6.46988 25.782
RightArm  -11.2262 -39.111 41.2097
RightForeArm  71.7345 79.3085 68.1823
RightHand  0.159482 4.26438 1.6382
LeftUpLeg  -0.900698 -1.12652 0.196671
LeftLeg  -0.147474 -7.23829 -0.344161
LeftFoot  0.868796 0.419203 -3.96839
LeftToes  4.76866e-008 1.46233e-008 1.30548e-009
370
root  -2.90677 40.8517 0.245973 -5.84756 -67.3919 6.26918
RightUpLeg  6.93098 -4.44303 -2.78929
RightLeg  -2.55005 -39.0189 2.59399
RightFoot  -2.70057 -0.351858 4.42062
RightToes  -3.13006e-008 1.75238e-005 3.56266e-009
Spine  -7.1491 -0.373679 -2.9381
Spine1  13.2832 0.342301 -0.645587
HEad  -13.788 2.57144 -5.93441
LeftShoulder1  1.83285 -2.83591 -22.6101
LeftArm  -70.7252 -43.849 -26.8088
LeftForeArm  124.715 -66.6704 -152.124
LeftHand  0.31135 -6.51648 -2.67083
RightShoulder  3.33997 6.84988 26.2314
RightArm  -11.7699 -39.3035 41.3567
RightForeArm  73.2615 79.4114 69.4556
RightHand  0.189949 4.34751 1.98043
LeftUpLeg  -0.784499 -0.990591 0.268622
LeftLeg  -0.00855903 -6.92683 -0.433627
LeftFoot  0.756592 0.396704 -3.78636
LeftToes  4.76866e-008 1.46233e-008 1.30548e-009
371
root  -2.90222 40.8521 0.287779 -6.21613 -67.733 6.5247
RightUpLeg  6.98615 -4.53421 -2.97047
RightLeg  -2.37117 -38.5644 2.45757
RightFoot  -2.73964 -0.35293 4.41889
RightToes  -3.13006e-008 1.75238e-005 3.56266e-009
Spine  -7.47421 -0.42153 -2.62991
Spine1  13.5642 0.326867 -0.824358
HEad  -14.146 1.79899 -5.2605
LeftShoulder1  1.85614 -2.92774 -22.5557
LeftArm  -69.4955 -42.6733 -27.4384
LeftForeArm  108.974 -73.7811 -136.399
LeftHand  0.153257 -5.09019 -1.42854
RightShoulder  3.23998 6.53457 26.2485
RightArm  -11.4604 -38.6742 41.6978
RightForeArm  71.6312 79.2917 67.6726
RightHand  0.21743 4.57084 2.24297
LeftUpLeg  -0.567619 -0.960175 0.178273
LeftLeg  -0.0393582 -6.60377 -0.508738
LeftFoot  0.716638 0.382355 -3.67159
LeftToes  4.76866e-008 1.46233e-008 1.30548e-009
372
root  -2.8994 40.8544 0.321279 -6.38792 -67.8547 6.65076
RightUpLeg  7.00079 -4.61446 -3.09971
RightLeg  -2.24927 -38.3609 2.39021
RightFoot  -2.75724 -0.359304 4.50404
RightToes  -3.13006e-008 1.75238e-005 3.56266e-009
Spine  -7.61488 -0.559716 -2.60119
Spine1  13.3457 0.0996132 -0.565393
HEad  -14.2479 2.34841 -4.71313
LeftShoulder1  1.89719 -3.03543 -22.7187
LeftArm  -68.8447 -42.0087 -28.033
LeftForeArm  72.1205 -78.5186 -99.4
LeftHand  0.194681 -3.46148 -2.29005
RightShoulder  3.1871 6.4609 25.9443
RightArm  -11.2991 -38.8339 42.2751
RightForeArm  71.8344 79.3046 67.7847
RightHand  0.228606 4.52426 2.38519
LeftUpLeg  -0.452063 -0.959128 0.114715
LeftLeg  -0.0909464 -6.47752 -0.540638
LeftFoot  0.702692 0.384835 -3.74726
LeftToes  4.76866e-008 1.46233e-008 1.30548e-009
